<?xml version="1.0" standalone="no"?>
<!DOCTYPE svg PUBLIC "-//W3C//DTD SVG 20010904//EN"
 "http://www.w3.org/TR/2001/REC-SVG-20010904/DTD/svg10.dtd">
<svg version="1.0" xmlns="http://www.w3.org/2000/svg"
 width="710.000000pt" height="710.000000pt" viewBox="0 0 710.000000 710.000000"
 preserveAspectRatio="xMidYMid meet">
<metadata>
Created by potrace 1.11, written by Peter Selinger 2001-2013
</metadata>
<g transform="translate(0.000000,710.000000) scale(0.100000,-0.100000)"
fill="#000000" stroke="none">
<path d="M1946 6510 c-156 -18 -349 -79 -500 -157 -92 -49 -286 -194 -357
-269 -75 -80 -254 -320 -310 -419 -214 -372 -343 -763 -379 -1150 -11 -124
-13 -453 -3 -623 7 -124 8 -126 80 -134 28 -3 28 -3 34 67 l5 70 2 -96 2 -96
39 -11 c21 -7 45 -12 52 -12 12 0 14 66 14 403 0 425 3 461 51 651 109 435
306 835 555 1129 4 5 53 -18 109 -52 124 -73 222 -115 349 -149 85 -22 115
-25 266 -25 151 0 181 3 265 25 52 14 136 44 186 66 l91 39 58 -80 c122 -168
256 -287 461 -410 158 -94 264 -143 379 -173 138 -37 343 -39 485 -4 297 71
546 240 741 501 44 60 86 109 91 109 6 0 49 -22 97 -50 357 -205 682 -220
1063 -46 l117 54 49 -72 c150 -218 256 -434 347 -709 102 -308 124 -437 134
-781 l6 -221 52 -3 52 -3 4 148 3 148 2 -182 2 -183 56 0 57 0 -7 218 c-14
443 -77 719 -247 1102 -136 303 -252 486 -434 684 -131 141 -207 205 -395 331
-304 204 -526 272 -855 262 -134 -4 -179 -10 -276 -35 -183 -47 -341 -124
-510 -248 -171 -126 -348 -342 -454 -553 l-37 -74 -66 127 c-143 273 -305 451
-572 630 -188 127 -361 202 -550 240 -96 19 -303 27 -404 16z m-806 -578 c0
-5 -45 -68 -99 -141 -153 -206 -249 -386 -357 -670 -122 -318 -161 -534 -173
-951 l-8 -245 -1 256 c-3 365 11 478 90 753 44 153 102 310 166 449 109 235
382 627 382 549z m5487 -1699 c-2 -16 -4 -3 -4 27 0 30 2 43 4 28 2 -16 2 -40
0 -55z"/>
<path d="M1585 5479 c-78 -7 -206 -48 -236 -75 -27 -24 -25 -70 5 -89 22 -15
28 -14 77 5 30 11 55 20 57 20 1 0 -7 -9 -18 -20 -27 -27 -25 -56 5 -76 23
-15 29 -14 110 15 103 37 135 40 135 11 0 -32 44 -69 89 -76 27 -4 42 -13 46
-25 8 -24 55 -49 90 -49 38 0 81 28 101 65 33 62 -6 151 -82 188 -26 12 -61
36 -80 53 -50 47 -158 66 -299 53z"/>
<path d="M5138 5310 c-77 -23 -118 -74 -118 -145 0 -30 8 -45 39 -76 25 -25
48 -39 64 -39 14 0 32 -8 39 -18 7 -10 24 -26 38 -35 69 -48 164 18 145 102
-6 29 -5 31 23 31 45 0 149 -37 239 -86 44 -24 88 -44 95 -44 8 0 23 9 33 20
25 28 9 61 -47 97 -24 15 -66 44 -94 65 -134 100 -349 160 -456 128z"/>
<path d="M2305 5244 c-115 -23 -126 -27 -141 -49 -13 -19 -13 -28 -3 -47 18
-34 30 -39 77 -33 39 6 42 5 42 -17 0 -44 22 -61 66 -54 21 4 85 9 142 12
l102 6 0 -49 c0 -41 5 -54 28 -77 16 -14 45 -29 65 -33 23 -3 39 -12 42 -23 7
-22 63 -50 98 -50 61 0 115 86 96 153 -22 80 -237 221 -385 252 -64 14 -182
18 -229 9z"/>
<path d="M4294 5232 c-92 -20 -148 -55 -170 -108 -32 -77 0 -152 73 -168 26
-6 46 -18 53 -32 28 -52 116 -60 161 -15 25 25 29 37 29 84 0 53 1 55 31 61
83 16 207 -2 302 -44 63 -28 121 -24 125 8 5 30 -22 60 -74 83 -23 11 -44 26
-47 34 -8 21 -93 61 -178 85 -106 29 -208 33 -305 12z"/>
<path d="M1915 4990 c-17 -19 -18 -31 -9 -153 6 -72 9 -134 7 -136 -1 -2 -33
4 -71 14 -87 21 -123 17 -138 -14 -20 -40 -3 -64 59 -85 34 -11 57 -24 57 -33
0 -18 43 -36 170 -68 116 -29 147 -27 156 11 11 43 -12 310 -32 376 -11 38
-66 32 -88 -9 -12 -24 -13 -23 -19 33 -8 80 -51 110 -92 64z m112 -197 c-3
-10 -5 -2 -5 17 0 19 2 27 5 18 2 -10 2 -26 0 -35z m10 -150 c-2 -16 -4 -3 -4
27 0 30 2 43 4 28 2 -16 2 -40 0 -55z"/>
<path d="M4901 4891 c-19 -19 -106 -272 -117 -341 -8 -52 5 -67 65 -75 44 -6
49 -10 55 -35 7 -38 44 -45 189 -36 123 8 147 16 147 49 0 37 -16 50 -69 55
-44 4 -51 7 -46 23 7 20 -26 59 -50 59 -20 0 -19 8 11 107 l26 86 -25 24 c-21
21 -28 23 -46 14 -26 -14 -41 -43 -76 -148 -15 -46 -32 -83 -36 -83 -13 0 -12
4 26 130 41 135 42 154 13 174 -29 21 -44 20 -67 -3z"/>
<path d="M1156 4714 c-9 -8 -16 -28 -16 -43 0 -114 147 -377 266 -475 71 -59
287 -192 352 -216 133 -51 208 -63 347 -57 229 9 393 75 370 148 -11 35 -49
41 -108 18 l-52 -21 24 26 c17 18 22 32 17 50 -12 49 -37 51 -154 10 -92 -32
-123 -38 -219 -42 -129 -5 -224 12 -321 58 -113 53 -200 168 -273 362 -22 56
-44 105 -51 110 -20 12 -45 9 -61 -7 -13 -13 -16 -10 -22 21 -11 63 -64 94
-99 58z"/>
<path d="M5577 4448 c-8 -13 -26 -44 -40 -69 -70 -124 -201 -246 -332 -309
-221 -107 -477 -89 -688 49 -96 63 -111 67 -136 42 -48 -48 -13 -92 156 -193
203 -123 309 -152 523 -145 157 5 215 19 346 85 169 85 353 293 380 429 5 25
2 33 -16 43 -39 21 -63 5 -110 -77 -62 -107 -201 -246 -296 -296 -40 -20 -75
-37 -79 -37 -4 0 27 22 67 49 187 125 365 380 306 439 -20 20 -66 14 -81 -10z"/>
<path d="M3555 3526 c-91 -22 -178 -80 -213 -143 -12 -20 -94 -9 -86 11 18 47
-106 79 -349 92 -129 6 -135 6 -156 -15 -11 -11 -21 -27 -21 -35 0 -23 41 -46
81 -46 36 0 36 0 47 -57 6 -32 23 -143 37 -248 14 -104 30 -204 36 -221 10
-33 58 -62 78 -49 12 7 13 109 2 198 -4 31 -4 54 0 50 4 -5 12 -53 19 -108 19
-158 29 -195 55 -207 13 -6 31 -8 41 -4 14 6 16 18 10 104 -4 53 -9 109 -12
124 -6 32 -3 33 134 48 117 13 146 21 156 46 12 30 -13 44 -77 44 -47 0 -58 3
-49 12 21 21 14 48 -15 59 -16 6 -61 9 -105 6 -70 -5 -78 -3 -78 13 0 9 -3 38
-6 64 l-7 47 123 -7 c100 -6 126 -10 142 -26 10 -10 22 -18 26 -18 13 0 39 32
47 58 9 32 89 90 148 107 60 18 72 13 25 -11 -57 -30 -89 -58 -114 -100 -27
-45 -31 -96 -10 -113 10 -9 15 -59 18 -214 4 -163 8 -208 21 -234 19 -36 35
-44 60 -31 15 8 17 25 17 135 0 165 18 153 26 -17 7 -127 21 -183 51 -195 30
-11 38 15 43 137 l5 121 99 -67 c54 -37 120 -78 145 -92 25 -14 62 -35 83 -47
30 -18 39 -19 52 -8 9 7 16 26 16 41 0 31 -25 53 -183 159 l-109 73 59 53
c113 102 144 209 94 323 -24 53 -80 112 -106 112 -8 0 -32 16 -53 35 -21 19
-51 39 -66 45 -35 13 -118 12 -181 -4z m203 -211 c3 -41 -33 -128 -53 -129 -5
-1 -12 13 -13 29 -4 36 -28 65 -53 65 -21 0 -26 -14 -35 -102 -3 -38 -10 -68
-15 -68 -5 0 -9 42 -9 94 l0 94 35 22 c44 27 82 39 115 37 22 -2 25 -7 28 -42z
m-781 -37 c-3 -7 -5 -2 -5 12 0 14 2 19 5 13 2 -7 2 -19 0 -25z m881 -127
c-25 -49 -104 -111 -140 -111 -15 0 -6 13 37 52 54 49 92 109 111 173 8 28 9
27 12 -19 2 -36 -3 -61 -20 -95z m-871 72 c-3 -10 -5 -4 -5 12 0 17 2 24 5 18
2 -7 2 -21 0 -30z"/>
<path d="M460 3486 c-113 -30 -192 -117 -144 -157 14 -11 26 -8 83 23 36 20
82 39 101 42 l35 6 -25 -17 c-57 -41 -82 -69 -82 -93 0 -31 55 -342 76 -435
20 -81 33 -98 95 -122 25 -9 52 -25 58 -34 23 -31 84 -48 135 -39 93 18 162
58 207 120 26 36 29 37 52 24 13 -7 38 -13 55 -14 25 0 33 -5 38 -23 12 -48
93 -59 241 -32 172 30 295 81 295 122 0 21 -4 23 -47 23 -27 0 -75 -7 -108
-15 -83 -20 -100 -18 -39 6 64 24 92 52 74 74 -17 20 -42 19 -153 -6 -50 -11
-111 -24 -134 -28 l-43 -8 0 31 0 32 151 23 c84 12 160 26 170 32 44 23 1 69
-63 69 -33 0 -37 3 -35 22 1 17 -7 28 -33 41 -29 15 -49 17 -114 13 -77 -5
-78 -5 -72 17 3 12 6 29 6 38 0 12 14 18 58 23 114 13 209 28 221 36 33 20
-34 70 -94 70 -16 0 -21 6 -21 23 1 27 -53 57 -104 57 -50 0 -278 -38 -301
-50 -25 -14 -24 -52 1 -75 17 -15 19 -26 13 -99 -3 -44 -12 -89 -19 -100 -7
-10 -10 -25 -7 -34 4 -8 2 -13 -3 -10 -5 2 -30 14 -55 26 -69 32 -74 43 -50
91 13 25 21 59 21 90 0 58 -21 87 -86 123 -22 13 -60 37 -83 55 -66 50 -174
66 -271 39z m214 -188 c-3 -13 -16 -36 -26 -51 -19 -26 -22 -27 -37 -13 -10 9
-25 16 -34 16 -17 0 -19 -4 -21 -45 -2 -37 -21 -26 -32 19 -9 36 -9 48 1 56
20 17 88 39 123 39 30 1 33 -1 26 -21z m124 -39 c2 -14 -2 -37 -7 -52 -8 -21
-17 -27 -41 -27 -16 0 -30 2 -30 6 0 3 11 22 25 42 14 20 25 43 25 50 0 24 25
6 28 -19z m338 -53 c7 -30 2 -56 -11 -59 -5 -1 -11 17 -13 41 -3 45 13 58 24
18z m-521 -394 c-7 -7 -46 188 -44 223 1 11 12 -34 25 -99 13 -66 21 -122 19
-124z m215 156 c0 -30 -36 -80 -77 -108 -42 -28 -48 -22 -58 58 -8 66 -2 72
78 72 52 0 57 -2 57 -22z m299 -50 c1 -16 -3 -28 -9 -28 -5 0 -10 21 -9 48 0
35 3 42 9 27 5 -11 9 -32 9 -47z m-179 -9 c0 -62 -66 -130 -148 -153 -80 -22
-84 -20 -24 10 64 32 106 79 129 144 16 45 19 48 30 33 7 -9 13 -25 13 -34z"/>
<path d="M5687 3446 c-47 -17 -67 -34 -67 -56 0 -30 26 -43 74 -37 l43 6 7
-202 c10 -278 15 -368 22 -379 7 -10 64 -6 96 7 14 6 17 -1 20 -37 3 -38 6
-43 30 -46 46 -5 123 36 183 99 64 67 110 158 127 248 11 56 13 59 25 41 8
-11 56 -48 106 -82 178 -119 202 -144 166 -176 -25 -24 -111 -48 -204 -58 -89
-9 -115 -18 -115 -43 0 -28 47 -61 86 -61 24 0 34 -5 39 -20 13 -41 49 -53
138 -47 194 14 319 103 289 204 -15 51 -67 99 -198 186 -127 84 -139 107 -82
150 64 49 127 48 153 -4 22 -42 59 -38 63 8 6 58 -48 123 -102 123 -9 0 -23
11 -32 26 -32 48 -115 72 -185 54 -51 -14 -122 -83 -139 -135 l-12 -37 -18 38
c-24 56 -65 100 -119 131 -25 15 -59 38 -76 51 -56 47 -104 62 -195 61 -47 0
-102 -6 -123 -13z m308 -201 c21 -54 17 -131 -10 -190 l-19 -40 -7 124 c-4 67
-10 129 -13 137 -3 9 1 14 13 14 14 0 25 -14 36 -45z m-132 -87 c9 -165 9
-258 -2 -258 -4 0 -11 37 -14 83 -10 118 -8 297 1 297 5 0 12 -55 15 -122z
m577 96 c0 -3 -13 -16 -28 -29 -15 -13 -37 -40 -47 -59 -23 -43 -32 -45 -41
-10 -5 18 0 32 17 51 30 32 99 65 99 47z m-313 -185 c-3 -30 -14 -73 -25 -95
-22 -43 -108 -144 -123 -144 -19 0 -8 33 24 71 45 52 83 131 98 207 11 54 15
60 22 40 5 -13 7 -48 4 -79z m523 -305 c-8 -9 -23 -20 -35 -24 -60 -22 -62
-21 -21 23 34 37 43 42 55 31 12 -11 12 -15 1 -30z"/>
<path d="M4106 3434 c-34 -33 -12 -462 27 -557 16 -38 49 -62 73 -53 10 4 14
25 15 73 1 37 4 55 6 38 10 -79 26 -136 44 -159 23 -29 56 -34 66 -10 3 8 -2
75 -11 147 -10 73 -20 198 -23 280 -6 162 -14 184 -56 173 -36 -9 -41 -44 -35
-240 6 -205 -8 -120 -21 122 -6 109 -14 178 -21 187 -16 19 -45 19 -64 -1z"/>
<path d="M1930 3425 c-36 -7 -102 -25 -145 -40 -134 -46 -175 -72 -175 -111 0
-39 37 -39 159 0 134 44 160 46 66 6 -83 -36 -110 -59 -100 -89 8 -28 51 -28
134 0 34 12 64 19 67 17 2 -3 7 -90 10 -194 4 -104 11 -197 16 -206 5 -10 19
-18 31 -18 49 0 50 3 46 234 -4 176 -2 217 9 221 8 3 71 12 141 20 69 9 145
18 169 21 35 4 42 9 42 28 0 34 -19 46 -72 46 -46 0 -48 1 -42 24 3 15 -1 29
-11 40 -14 13 -38 16 -148 15 -73 0 -161 -7 -197 -14z"/>
<path d="M4485 3410 c-60 -11 -120 -24 -132 -30 -29 -12 -29 -39 -2 -74 19
-24 20 -34 14 -104 -4 -42 -12 -83 -17 -89 -6 -7 -7 -27 -3 -45 3 -18 10 -77
14 -132 6 -91 9 -100 34 -122 18 -15 41 -24 61 -24 27 0 35 -5 40 -23 12 -48
93 -59 246 -32 81 14 220 56 249 74 10 7 24 2 44 -15 54 -45 55 -42 63 187 5
123 11 178 18 176 7 -2 12 -72 14 -210 l2 -206 27 -21 c17 -13 30 -17 36 -11
6 6 12 80 15 166 3 85 8 157 11 159 3 2 35 -34 70 -80 74 -97 123 -144 152
-144 11 0 35 -16 53 -35 26 -28 41 -35 70 -35 32 0 39 4 51 33 24 58 70 430
63 512 -2 33 -7 41 -26 43 -48 7 -52 -8 -88 -298 -9 -74 -20 -142 -24 -150
-19 -34 -22 22 -6 132 28 202 39 367 26 383 -16 19 -54 19 -70 0 -7 -9 -22
-89 -32 -178 -11 -89 -21 -172 -23 -183 -4 -19 -22 -4 -117 95 -125 128 -133
135 -149 125 -7 -4 -30 13 -54 40 -49 52 -68 57 -91 21 -13 -21 -17 -63 -22
-226 -3 -134 -9 -202 -16 -204 -6 -1 -40 -8 -76 -14 -36 -7 -76 -15 -90 -18
-14 -2 3 9 38 26 63 31 74 48 46 72 -14 11 -37 9 -148 -14 -156 -32 -176 -33
-176 -9 0 9 4 22 8 29 4 6 70 20 148 32 141 20 194 34 194 48 -1 28 -45 53
-93 53 -31 0 -34 2 -29 25 7 39 -51 59 -149 52 l-76 -6 6 37 6 37 140 20 c112
16 140 23 143 37 4 21 -33 47 -79 54 -24 4 -36 11 -35 21 0 8 -11 25 -26 36
-38 28 -117 31 -253 7z m5 -225 c0 -19 -4 -37 -10 -40 -6 -4 -10 12 -10 40 0
28 4 44 10 40 6 -3 10 -21 10 -40z m-13 -277 c-2 -13 -4 -5 -4 17 -1 22 1 32
4 23 2 -10 2 -28 0 -40z"/>
<path d="M2070 3112 c0 -60 3 -171 7 -246 7 -147 10 -154 58 -142 l25 6 -1
138 c-1 75 -4 181 -8 235 -6 103 -13 117 -58 117 -22 0 -23 -3 -23 -108z"/>
<path d="M4724 2453 c-27 -21 -114 -84 -194 -141 -113 -80 -151 -102 -170 -99
-14 2 -82 21 -152 40 -201 57 -323 70 -566 64 -228 -6 -375 -29 -503 -81 -36
-14 -69 -26 -74 -26 -4 0 -49 26 -99 59 -50 32 -142 89 -204 126 l-113 67 -65
-12 c-35 -7 -64 -16 -64 -21 0 -6 370 -257 434 -294 16 -9 17 -13 3 -50 -25
-67 -27 -90 -12 -141 22 -74 60 -105 250 -203 47 -25 57 -26 180 -24 72 2 193
7 270 12 77 6 199 13 271 17 l132 6 17 -26 c23 -34 11 -81 -28 -110 -25 -19
-45 -21 -169 -24 -158 -4 -221 4 -367 49 -109 33 -143 33 -162 -2 -15 -29 13
-66 67 -88 22 -9 53 -26 68 -38 59 -47 259 -93 474 -108 85 -7 93 -9 98 -30 7
-30 -18 -78 -54 -104 -43 -30 -114 -43 -232 -43 -123 0 -202 17 -318 68 -93
40 -128 40 -138 0 -9 -37 10 -60 73 -94 32 -16 83 -44 113 -60 83 -46 197 -81
309 -94 l101 -12 0 -31 c0 -67 -69 -107 -195 -113 -141 -6 -289 39 -398 122
-57 44 -109 29 -109 -31 0 -37 48 -76 196 -156 125 -67 211 -99 305 -112 l53
-7 -5 -40 c-14 -104 -90 -114 -317 -42 -183 58 -362 128 -610 238 -466 206
-831 455 -1176 800 -185 186 -353 389 -442 533 -56 91 -57 92 -97 93 -36 0
-43 4 -59 35 -19 34 -20 35 -84 35 l-64 0 32 -57 c201 -357 605 -783 1025
-1079 454 -321 977 -583 1510 -757 252 -82 291 -91 340 -77 58 18 119 63 150
113 28 43 30 45 144 77 154 44 426 145 596 221 505 228 1037 646 1344 1054 71
94 207 306 280 434 47 84 45 91 -29 91 l-46 0 -62 -110 c-149 -260 -276 -426
-501 -651 -266 -266 -501 -441 -843 -628 -43 -23 -78 -40 -78 -38 0 3 42 28
93 57 146 83 360 229 507 346 152 122 379 343 493 482 129 156 397 578 382
602 -3 5 -30 10 -59 10 l-53 0 -68 -117 c-91 -157 -159 -259 -250 -373 -341
-427 -800 -776 -1325 -1008 -123 -54 -358 -142 -380 -142 -6 0 0 19 12 42 27
51 29 129 6 176 -19 36 -26 25 68 91 83 58 109 179 59 277 l-25 48 24 26 c103
110 65 281 -79 353 -16 8 -53 31 -82 50 -98 66 -114 67 -642 32 -279 -19 -277
-19 -265 40 8 41 57 89 113 113 25 11 100 32 166 47 112 25 137 27 355 27 266
0 322 -7 553 -73 l141 -41 41 20 c78 38 485 351 485 373 0 12 -102 12 -135 -1
-15 -6 -52 -30 -83 -54 -98 -75 -304 -216 -315 -216 -5 0 37 34 94 76 100 73
329 261 329 270 0 2 -33 4 -74 4 -69 0 -76 -2 -122 -37z m-1634 -410 c-1 -10
-7 -31 -14 -48 -16 -38 -27 -14 -14 33 9 34 28 44 28 15z m1110 -427 c0 -29
-41 -81 -70 -89 -17 -4 -16 0 10 30 17 19 35 46 40 59 12 31 20 31 20 0z m-34
-339 c-7 -35 -38 -72 -78 -93 -40 -21 -39 -18 8 30 25 25 47 57 50 75 4 17 11
28 16 25 6 -4 7 -20 4 -37z m-156 -387 c-10 -19 -66 -60 -81 -60 -3 0 11 18
32 40 22 22 42 53 46 68 l8 27 3 -27 c2 -15 -2 -36 -8 -48z m-150 -331 c-7
-16 -25 -36 -41 -44 -41 -22 -46 -18 -17 13 14 15 34 40 44 56 22 34 31 17 14
-25z"/>
</g>
</svg>
